<svg x="0" y="0" viewBox="0 0 935 935" xmlns="http://www.w3.org/2000/svg"><style type="text/css" id="style2">.st0{fill-rule:evenodd;clip-rule:evenodd;fill:#fff}</style><path id="rect848" fill="#000" fill-opacity="1" stroke="none" stroke-width="2.243" stroke-dasharray="2.243 2.243" d="M0 0h935v935H0z"/><path class="st0" d="M741.33 461.825c14.7 0 27.86 9.66 32.49 23.38h-64.9c4.54-13.72 17.7-23.38 32.41-23.38zm65.04 35.21c0-17.08-6.65-33.18-18.69-45.43-12.11-12.25-28.07-19.04-45.09-19.04h-.84c-17.64.21-34.3 7.21-46.77 19.74-12.46 12.53-19.46 29.12-19.67 46.83-.21 18.06 6.72 35.14 19.53 48.09 12.81 12.95 29.76 20.09 47.82 20.09h.07c23.66 0 45.86-12.67 57.97-33.04l1.54-2.59-26.6-13.09-1.33 2.17c-6.65 10.99-18.2 17.5-31.01 17.5-16.38 0-30.53-10.92-34.87-26.46h97.95v-14.77zm-166.63-87.36c-11.6 0-21-9.4-21-21s9.4-21 21-21 21 9.4 21 21c.01 11.6-9.4 21-21 21m-16.1 154.99h32.21v-129.37h-32.21zm-61.61-194.26h32.2v194.26h-32.2zm-61.61 194.26h32.21v-194.26h-32.21zm-84.71-29.21c-19.54 0-35.44-15.9-35.44-35.44s15.9-35.44 35.44-35.44 35.44 15.9 35.44 35.44-15.9 35.44-35.44 35.44zm0-102.89c-37.19 0-67.38 30.26-67.38 67.38 0 37.12 30.26 67.38 67.38 67.38 37.12 0 67.38-30.26 67.38-67.38 0-37.12-30.19-67.38-67.38-67.38zm-137.5.21a64.07 64.07 0 0 0-5.18-.21c-16.24 0-31.64 6.65-42.71 18.41-11.06-11.69-26.39-18.41-42.5-18.41-32.2 0-58.46 26.18-58.46 58.38v73.71h31.51v-72.8c0-13.37 10.99-25.69 23.94-27.02.91-.07 1.82-.14 2.66-.14 14.56 0 26.46 11.9 26.53 26.46v73.5h32.2v-72.94c0-13.3 10.92-25.62 23.94-26.95.91-.07 1.82-.14 2.66-.14 14.56 0 26.53 11.83 26.6 26.32v73.71h32.21v-72.8a59.78 59.78 0 0 0-15.33-39.97c-9.86-11.06-23.37-17.85-38.07-19.11" id="path4"/></svg>
